<svg fill="none" viewBox="0 0 150 30" xmlns="http://www.w3.org/2000/svg" id="" class="style-svg replaced-svg svg-replaced-0">
	<g fill="#000000">
		<path clip-rule="evenodd" d="m11.466 2.76 2.657-.711a12.618 12.618 0 0 0 -1.623-.105c-6.904 0-12.5 5.597-12.5 12.5 0 6.904 5.596 12.5 12.5 12.5s12.5-5.596 12.5-12.5c0-1.43-.24-2.804-.683-4.084l-4.939 1.324-1.38-5.152 3.365-.902a12.513 12.513 0 0 0 -4.372-2.854l1.007 3.756-5.152 1.38-1.38-5.151zm2.76 10.304 5.152-1.38 1.38 5.151-5.15 1.38-1.381-5.151zm-1.38-5.152-5.151 1.38 1.38 5.152 5.152-1.38-1.38-5.152z" fill-rule="evenodd">
		</path>
		<path d="m42.688 9.384v10.56h-3.056l-3.28-5.712-.8-1.568h-.016l.064 1.952v5.328h-2.432v-10.56h3.056l3.28 5.712.8 1.568h.016l-.064-1.952v-5.328zm13.172 0v6.256c0 1.494-.4 2.614-1.2 3.36-.79.736-1.963 1.104-3.52 1.104-1.547 0-2.72-.368-3.52-1.104-.8-.746-1.2-1.866-1.2-3.36v-6.256h2.767v6.304c0 .758.16 1.323.48 1.696.331.374.822.56 1.472.56.662 0 1.152-.186 1.472-.56.331-.373.496-.938.496-1.696v-6.304h2.752zm15.95 0v10.56h-2.43v-4.848l.08-3.248h-.032l-2.608 8.096h-2.224l-2.608-8.096h-.032l.08 3.248v4.848h-2.448v-10.56h3.92l1.664 5.376.592 2.24h.032l.608-2.224 1.648-5.392h3.76zm3.94 10.56v-10.56h8.223v2.128h-5.472v2.144h4.352v2h-4.352v2.16h5.68v2.128zm16.733-10.56c1.259 0 2.235.299 2.928.896.704.587 1.056 1.371 1.056 2.352 0 1.078-.347 1.899-1.04 2.464-.693.566-1.67.848-2.928.848l-.256.144h-2.096v3.856h-2.704v-10.56zm-.384 4.752c.533 0 .933-.106 1.2-.32.267-.213.4-.554.4-1.024 0-.458-.133-.794-.4-1.008-.267-.213-.667-.32-1.2-.32h-1.952v2.672zm1.616.576 3.376 5.232h-3.04l-2.704-4.624zm9.111-5.328v10.56h-2.752v-10.56zm13.302 7.536c-.203.736-.528 1.344-.976 1.824a4.11 4.11 0 0 1 -1.6 1.04 6.25 6.25 0 0 1 -2.048.32c-1.067 0-1.989-.213-2.768-.64a4.4 4.4 0 0 1 -1.792-1.872c-.416-.81-.624-1.786-.624-2.928 0-1.141.208-2.117.624-2.928a4.302 4.302 0 0 1 1.792-1.856c.779-.437 1.696-.656 2.752-.656.736 0 1.413.107 2.032.32a3.89 3.89 0 0 1 1.568.944c.427.427.731.976.912 1.648l-2.416.976c-.149-.661-.395-1.114-.736-1.36-.331-.245-.752-.368-1.264-.368-.501 0-.939.123-1.312.368-.363.246-.645.614-.848 1.104-.192.48-.288 1.083-.288 1.808 0 .715.091 1.318.272 1.808.181.491.453.859.816 1.104.373.246.832.368 1.376.368.512 0 .944-.138 1.296-.416.363-.288.608-.725.736-1.312zm2.027 3.024 3.712-10.56h3.296l3.696 10.56h-2.832l-2.064-6.784-.464-1.664h-.032l-.432 1.648-2.112 6.8zm2.416-2.384v-1.872h5.872v1.872z">
		</path>
	</g>
</svg>
