<svg id="svg" version="1.1" xmlns="http://www.w3.org/2000/svg" xmlns:xlink="http://www.w3.org/1999/xlink" width="400" height="75.23219814241486" viewBox="0, 0, 400,75.23219814241486"><g id="svgg"><path id="path0" d="M238.793 5.428 C 238.725 5.497,238.125 5.576,237.460 5.604 C 236.794 5.633,235.500 5.813,234.583 6.004 C 233.667 6.196,232.635 6.394,232.291 6.444 C 231.946 6.494,231.623 6.602,231.572 6.684 C 231.522 6.766,231.316 6.834,231.115 6.834 C 230.743 6.835,227.972 7.865,226.373 8.596 C 225.887 8.818,225.458 9.000,225.418 9.000 C 225.229 9.000,222.091 10.974,220.450 12.125 C 218.526 13.474,215.197 16.647,213.936 18.333 C 213.559 18.837,213.194 19.275,213.125 19.306 C 213.056 19.336,213.000 19.418,213.000 19.488 C 213.000 19.558,212.592 20.225,212.093 20.970 C 211.316 22.132,210.625 23.453,208.982 26.917 C 208.808 27.283,208.666 27.710,208.666 27.865 C 208.666 28.020,208.600 28.188,208.518 28.239 C 208.437 28.289,208.333 28.575,208.288 28.873 C 208.242 29.172,208.055 29.942,207.872 30.583 C 206.689 34.728,206.526 39.204,207.361 44.583 C 207.654 46.469,208.372 49.149,208.923 50.417 C 209.043 50.692,209.288 51.292,209.468 51.750 C 210.241 53.718,212.142 57.103,213.228 58.446 C 213.363 58.613,213.865 59.237,214.344 59.833 C 215.452 61.213,219.320 65.000,219.621 65.000 C 219.659 65.000,219.806 65.115,219.946 65.256 C 220.087 65.397,220.663 65.822,221.226 66.202 C 221.789 66.581,222.288 66.935,222.333 66.987 C 222.436 67.105,223.262 67.549,224.583 68.197 C 225.133 68.466,225.733 68.770,225.917 68.872 C 227.086 69.524,229.513 70.500,229.964 70.500 C 230.078 70.500,230.301 70.569,230.461 70.653 C 230.620 70.737,231.200 70.930,231.750 71.081 C 232.300 71.233,233.088 71.456,233.500 71.579 C 236.080 72.343,247.191 72.409,248.250 71.667 C 248.342 71.602,248.888 71.453,249.463 71.334 C 250.039 71.216,250.549 71.055,250.598 70.976 C 250.647 70.898,250.870 70.833,251.095 70.833 C 251.320 70.833,251.635 70.761,251.794 70.673 C 251.953 70.585,252.871 70.239,253.833 69.904 C 254.796 69.569,255.661 69.232,255.756 69.156 C 255.851 69.081,256.751 68.591,257.756 68.069 C 259.662 67.079,261.452 65.931,262.577 64.977 C 265.720 62.311,266.770 61.226,268.896 58.449 C 270.954 55.762,273.070 51.640,273.834 48.833 C 274.077 47.941,274.315 47.207,274.508 46.750 C 275.550 44.283,275.498 35.981,274.411 31.248 C 274.263 30.608,274.102 29.876,274.052 29.623 C 274.002 29.370,273.895 29.122,273.814 29.071 C 273.733 29.021,273.667 28.854,273.667 28.698 C 273.667 28.543,273.395 27.712,273.062 26.852 C 272.542 25.508,272.162 24.717,270.730 22.000 C 270.462 21.490,268.996 19.374,268.064 18.151 C 266.526 16.132,261.080 11.167,260.404 11.167 C 260.348 11.167,260.091 11.017,259.833 10.833 C 258.593 9.950,254.519 7.832,254.067 7.834 C 253.984 7.835,253.354 7.620,252.667 7.358 C 250.891 6.680,250.287 6.500,249.790 6.500 C 249.550 6.500,249.312 6.434,249.263 6.354 C 249.213 6.274,248.553 6.118,247.795 6.008 C 247.037 5.897,246.304 5.759,246.167 5.700 C 245.898 5.585,245.643 5.568,241.583 5.408 C 240.117 5.350,238.861 5.358,238.793 5.428 M92.417 6.185 C 90.439 6.351,89.120 6.568,88.000 6.910 C 87.496 7.064,86.858 7.253,86.583 7.330 C 79.297 9.378,71.191 15.453,67.867 21.355 C 67.693 21.664,67.277 22.344,66.942 22.867 C 66.607 23.390,66.333 23.862,66.333 23.917 C 66.333 23.971,65.996 24.733,65.584 25.609 C 64.355 28.222,63.367 31.610,63.003 34.463 C 62.918 35.130,62.770 36.100,62.674 36.619 C 62.141 39.505,62.781 44.541,64.365 49.917 C 64.662 50.926,66.492 54.993,66.989 55.750 C 67.230 56.117,67.524 56.610,67.642 56.846 C 68.107 57.769,70.274 60.509,71.969 62.315 C 73.693 64.152,74.503 64.857,76.479 66.239 C 76.995 66.600,77.442 66.956,77.472 67.031 C 77.503 67.105,77.608 67.167,77.706 67.167 C 77.805 67.167,78.131 67.354,78.431 67.583 C 78.732 67.813,79.052 68.000,79.142 68.000 C 79.232 68.000,79.331 68.057,79.361 68.127 C 79.415 68.251,81.584 69.338,82.917 69.909 C 83.283 70.066,83.714 70.263,83.873 70.347 C 84.032 70.431,84.277 70.500,84.417 70.500 C 84.557 70.500,84.801 70.569,84.961 70.652 C 85.120 70.736,85.775 70.971,86.417 71.175 C 87.521 71.526,87.931 71.624,89.917 72.011 C 93.453 72.700,99.470 72.562,103.667 71.696 C 107.271 70.953,113.598 67.934,116.267 65.685 C 116.551 65.446,117.076 65.014,117.433 64.725 C 119.734 62.865,122.884 59.248,124.361 56.769 C 125.711 54.504,126.484 52.813,127.798 49.250 C 128.149 48.300,128.445 46.972,128.875 44.417 C 129.125 42.932,129.121 35.650,128.869 34.083 C 128.550 32.100,128.202 30.405,128.012 29.917 C 127.941 29.733,127.791 29.321,127.679 29.000 C 127.106 27.367,126.248 25.193,126.002 24.750 C 125.849 24.475,125.435 23.725,125.081 23.083 C 120.883 15.464,113.479 9.631,104.917 7.196 C 104.550 7.092,103.950 6.922,103.583 6.818 C 101.162 6.134,96.298 5.858,92.417 6.185 M354.856 7.792 C 354.651 8.410,354.412 9.085,354.325 9.292 C 354.238 9.498,354.083 9.873,353.981 10.125 C 353.878 10.377,353.728 10.714,353.647 10.873 C 353.566 11.032,353.500 11.275,353.500 11.413 C 353.500 11.626,353.284 12.244,352.507 14.250 C 352.436 14.433,352.301 14.771,352.208 15.000 C 352.114 15.229,351.941 15.754,351.822 16.167 C 351.704 16.579,351.555 16.992,351.492 17.083 C 351.429 17.175,351.250 17.662,351.093 18.167 C 350.937 18.671,350.747 19.233,350.670 19.417 C 350.594 19.600,350.405 20.087,350.252 20.500 C 350.098 20.912,349.876 21.475,349.758 21.750 C 349.640 22.025,349.445 22.587,349.326 23.000 C 349.065 23.899,348.370 25.802,348.154 26.206 C 348.069 26.365,348.000 26.610,348.000 26.750 C 348.000 26.890,347.931 27.135,347.847 27.294 C 347.762 27.453,347.526 28.033,347.321 28.583 C 347.116 29.133,346.885 29.655,346.807 29.742 C 346.730 29.829,346.667 30.032,346.667 30.194 C 346.667 30.566,346.226 31.882,345.815 32.740 C 345.642 33.101,345.500 33.527,345.500 33.688 C 345.500 33.849,345.425 34.027,345.333 34.083 C 345.242 34.140,345.167 34.333,345.167 34.512 C 345.167 34.691,345.096 34.968,345.010 35.127 C 344.924 35.286,344.657 35.979,344.417 36.667 C 344.176 37.354,343.909 38.047,343.823 38.206 C 343.737 38.365,343.667 38.642,343.667 38.821 C 343.667 39.000,343.592 39.193,343.500 39.250 C 343.408 39.307,343.333 39.465,343.333 39.601 C 343.333 39.738,343.183 40.160,343.000 40.539 C 342.817 40.919,342.667 41.327,342.667 41.446 C 342.667 41.673,341.921 43.706,341.654 44.206 C 341.569 44.365,341.500 44.646,341.500 44.831 C 341.500 45.016,341.425 45.167,341.333 45.167 C 341.242 45.167,341.167 45.299,341.167 45.461 C 341.167 45.622,341.011 46.166,340.821 46.669 C 340.630 47.172,340.362 47.921,340.224 48.333 C 340.086 48.746,339.912 49.233,339.838 49.417 C 339.283 50.781,339.000 51.577,339.000 51.772 C 339.000 51.898,338.925 52.000,338.833 52.000 C 338.742 52.000,338.667 52.183,338.667 52.407 C 338.667 52.631,338.592 52.860,338.500 52.917 C 338.408 52.973,338.333 53.145,338.333 53.298 C 338.333 53.584,337.602 55.690,337.323 56.206 C 337.237 56.365,337.167 56.610,337.167 56.750 C 337.167 56.890,337.097 57.135,337.012 57.294 C 336.789 57.713,336.104 59.566,335.675 60.913 C 335.471 61.553,335.161 62.373,334.986 62.736 C 334.810 63.099,334.667 63.517,334.667 63.665 C 334.667 63.812,334.607 64.005,334.534 64.092 C 334.461 64.179,334.305 64.550,334.187 64.917 C 333.795 66.134,333.148 67.913,332.990 68.206 C 332.904 68.365,332.833 68.631,332.833 68.798 C 332.833 68.964,332.766 69.171,332.684 69.258 C 332.602 69.345,332.484 69.660,332.421 69.958 L 332.307 70.500 340.992 70.500 C 349.117 70.500,349.683 70.481,349.771 70.208 C 350.008 69.471,350.541 68.055,350.680 67.794 C 350.764 67.635,350.833 67.354,350.833 67.169 C 350.833 66.984,350.898 66.833,350.977 66.833 C 351.057 66.833,351.165 66.515,351.219 66.125 C 351.308 65.478,351.808 64.006,352.182 63.294 C 352.265 63.135,352.333 62.858,352.333 62.679 C 352.333 62.500,352.408 62.307,352.500 62.250 C 352.592 62.193,352.667 61.931,352.667 61.667 C 352.667 61.402,352.742 61.140,352.833 61.083 C 352.925 61.027,353.000 60.870,353.000 60.735 C 353.000 60.600,353.124 60.210,353.275 59.870 C 353.426 59.529,353.561 59.175,353.575 59.083 C 353.630 58.731,353.865 57.902,354.002 57.583 C 354.080 57.400,354.240 56.950,354.356 56.583 C 354.473 56.217,354.628 55.845,354.701 55.758 C 354.774 55.671,354.833 55.428,354.833 55.217 C 354.833 55.006,354.908 54.833,355.000 54.833 C 355.092 54.833,355.166 54.665,355.165 54.458 C 355.164 54.095,356.222 50.713,356.519 50.127 C 356.600 49.968,356.667 49.691,356.667 49.512 C 356.667 49.333,356.742 49.140,356.833 49.083 C 356.925 49.027,357.000 48.869,357.000 48.732 C 357.000 48.596,357.150 48.173,357.333 47.794 C 357.517 47.415,357.667 46.973,357.667 46.812 C 357.667 46.651,357.743 46.473,357.836 46.415 C 357.929 46.357,357.972 46.256,357.931 46.190 C 357.849 46.058,358.538 43.906,358.720 43.724 C 358.783 43.662,358.833 43.441,358.833 43.232 C 358.833 43.024,358.908 42.807,359.000 42.750 C 359.092 42.693,359.167 42.500,359.167 42.321 C 359.167 42.142,359.233 41.865,359.315 41.706 C 359.396 41.547,359.742 40.517,360.084 39.417 C 360.426 38.317,360.767 37.267,360.842 37.083 C 360.917 36.900,361.073 36.450,361.190 36.083 C 361.306 35.717,361.461 35.345,361.534 35.258 C 361.607 35.171,361.667 34.928,361.667 34.717 C 361.667 34.506,361.742 34.333,361.833 34.333 C 361.925 34.333,362.000 34.150,362.000 33.927 C 362.000 33.523,362.698 31.350,363.006 30.794 C 363.094 30.635,363.167 30.390,363.167 30.250 C 363.167 30.110,363.235 29.865,363.319 29.706 C 363.403 29.547,363.631 28.879,363.826 28.223 C 364.158 27.105,364.543 26.478,364.710 26.784 C 364.750 26.857,364.988 27.592,365.239 28.417 C 365.491 29.242,365.750 30.029,365.816 30.167 C 365.882 30.304,366.147 31.092,366.405 31.917 C 366.663 32.742,366.929 33.567,366.996 33.750 C 367.281 34.530,367.750 35.936,368.694 38.833 C 369.246 40.529,369.766 42.047,369.849 42.206 C 369.932 42.365,370.000 42.610,370.000 42.750 C 370.000 42.890,370.073 43.135,370.162 43.294 C 370.319 43.573,370.885 45.274,371.341 46.833 C 371.461 47.246,371.607 47.658,371.665 47.750 C 371.723 47.842,372.205 49.267,372.735 50.917 C 373.265 52.567,373.766 54.047,373.849 54.206 C 373.932 54.365,374.000 54.631,374.000 54.798 C 374.000 54.964,374.062 55.171,374.139 55.258 C 374.215 55.345,374.560 56.317,374.906 57.417 C 375.251 58.517,375.673 59.792,375.843 60.250 C 376.013 60.708,376.500 62.171,376.925 63.500 C 377.351 64.829,377.767 66.047,377.849 66.206 C 377.932 66.365,378.000 66.648,378.000 66.833 C 378.000 67.019,378.069 67.301,378.153 67.461 C 378.238 67.620,378.469 68.200,378.668 68.750 C 378.867 69.300,379.096 69.919,379.178 70.125 L 379.326 70.500 387.996 70.500 C 392.765 70.500,396.665 70.444,396.662 70.375 C 396.654 70.145,395.894 68.005,395.780 67.891 C 395.717 67.829,395.667 67.618,395.667 67.422 C 395.667 67.227,395.599 66.995,395.517 66.908 C 395.435 66.821,395.126 66.037,394.830 65.167 C 394.205 63.323,393.911 62.512,393.380 61.167 C 393.206 60.724,392.853 59.720,392.298 58.083 C 392.112 57.533,391.894 56.953,391.813 56.794 C 391.733 56.635,391.667 56.403,391.667 56.278 C 391.667 56.153,391.547 55.811,391.400 55.516 C 391.107 54.928,389.681 50.975,389.545 50.373 C 389.498 50.165,389.394 49.954,389.313 49.904 C 389.233 49.854,389.167 49.667,389.167 49.488 C 389.167 49.309,389.094 49.032,389.006 48.873 C 388.742 48.398,387.667 45.368,387.667 45.100 C 387.667 44.964,387.592 44.807,387.500 44.750 C 387.408 44.693,387.333 44.538,387.333 44.405 C 387.333 44.272,387.190 43.845,387.014 43.457 C 386.690 42.737,385.367 39.022,385.220 38.417 C 385.175 38.233,385.070 37.915,384.986 37.708 C 384.902 37.502,384.766 37.165,384.684 36.958 C 384.601 36.752,384.423 36.321,384.287 36.000 C 384.151 35.679,383.950 35.117,383.840 34.750 C 383.594 33.925,382.695 31.519,382.487 31.127 C 382.403 30.968,382.333 30.723,382.333 30.583 C 382.333 30.443,382.263 30.199,382.177 30.039 C 381.910 29.545,381.167 27.423,381.167 27.155 C 381.167 27.015,381.105 26.829,381.029 26.742 C 380.953 26.655,380.790 26.246,380.666 25.833 C 380.542 25.421,380.387 25.008,380.323 24.917 C 380.258 24.825,379.906 23.887,379.540 22.833 C 378.758 20.582,378.333 19.378,378.157 18.917 C 377.233 16.496,376.833 15.353,376.833 15.127 C 376.833 14.976,376.758 14.807,376.667 14.750 C 376.575 14.693,376.500 14.538,376.500 14.405 C 376.500 14.272,376.355 13.845,376.177 13.457 C 375.999 13.068,375.663 12.188,375.430 11.500 C 374.526 8.832,374.222 7.999,374.113 7.891 C 374.051 7.829,374.000 7.618,374.000 7.422 C 374.000 6.659,374.099 6.667,364.415 6.667 L 355.230 6.667 354.856 7.792 M137.541 38.636 L 137.583 70.417 145.375 70.460 C 151.552 70.494,153.167 70.460,153.169 70.293 C 153.170 70.178,153.169 61.415,153.167 50.821 C 153.164 40.227,153.208 31.514,153.264 31.458 C 153.475 31.247,153.870 31.571,154.511 32.479 C 155.253 33.530,156.039 34.583,156.457 35.083 C 156.823 35.523,157.715 36.677,159.416 38.917 C 160.183 39.925,161.157 41.200,161.582 41.750 C 162.007 42.300,163.319 44.025,164.497 45.583 C 165.674 47.142,166.987 48.867,167.413 49.417 C 167.839 49.967,168.477 50.792,168.830 51.250 C 169.183 51.708,169.820 52.533,170.246 53.083 C 170.672 53.633,171.645 54.908,172.409 55.917 C 173.173 56.925,174.237 58.326,174.774 59.029 C 175.311 59.732,175.900 60.516,176.083 60.771 C 176.267 61.026,176.609 61.463,176.844 61.742 C 177.079 62.021,177.450 62.512,177.669 62.833 C 177.888 63.154,178.109 63.454,178.160 63.500 C 178.210 63.546,178.589 64.029,179.001 64.574 C 179.413 65.120,180.073 65.982,180.468 66.491 C 180.863 67.000,181.711 68.111,182.351 68.960 L 183.515 70.503 191.383 70.460 L 199.250 70.417 199.292 38.634 L 199.334 6.852 191.500 6.843 L 183.667 6.835 183.667 26.435 C 183.667 44.240,183.643 46.026,183.403 45.934 C 183.258 45.879,183.111 45.833,183.076 45.833 C 183.041 45.833,182.708 45.402,182.337 44.875 C 181.965 44.348,181.433 43.617,181.154 43.250 C 180.875 42.883,180.483 42.366,180.282 42.100 C 180.081 41.834,179.239 40.747,178.412 39.683 C 177.584 38.620,176.725 37.487,176.503 37.167 C 176.281 36.846,176.052 36.546,175.995 36.500 C 175.938 36.454,175.186 35.479,174.324 34.333 C 173.462 33.188,172.717 32.212,172.668 32.167 C 172.619 32.121,171.984 31.296,171.258 30.333 C 169.718 28.293,167.229 25.026,166.195 23.686 C 164.970 22.099,162.605 19.012,162.167 18.427 C 160.824 16.637,159.755 15.239,159.671 15.167 C 159.581 15.088,158.714 13.948,155.613 9.833 C 154.888 8.871,154.036 7.800,153.720 7.454 L 153.145 6.824 145.322 6.840 L 137.499 6.855 137.541 38.636 M283.167 6.998 C 274.869 7.082,274.751 7.088,274.799 7.417 C 274.849 7.750,275.333 9.104,275.769 10.125 C 276.058 10.802,276.304 11.395,276.998 13.083 C 277.300 13.817,277.649 14.634,277.773 14.901 C 277.898 15.167,278.000 15.487,278.000 15.611 C 278.000 15.736,278.074 15.968,278.164 16.127 C 278.479 16.684,279.325 18.658,279.434 19.093 C 279.495 19.335,279.759 19.976,280.022 20.519 C 280.285 21.061,280.500 21.580,280.500 21.672 C 280.500 21.763,280.569 21.968,280.653 22.127 C 280.872 22.544,281.255 23.446,281.658 24.500 C 281.851 25.004,282.072 25.567,282.149 25.750 C 282.226 25.933,282.366 26.271,282.461 26.500 C 282.555 26.729,282.745 27.179,282.883 27.500 C 283.088 27.980,283.732 29.574,284.684 31.958 C 284.766 32.165,284.906 32.502,284.994 32.708 C 285.083 32.915,285.332 33.496,285.548 34.000 C 285.765 34.504,286.046 35.273,286.174 35.708 C 286.302 36.144,286.465 36.500,286.536 36.500 C 286.608 36.500,286.667 36.605,286.667 36.734 C 286.667 36.863,286.809 37.257,286.983 37.609 C 287.157 37.962,287.652 39.150,288.083 40.250 C 289.225 43.163,289.291 43.323,289.982 44.866 C 290.175 45.296,290.333 45.802,290.333 45.991 C 290.333 46.179,290.408 46.333,290.500 46.333 C 290.592 46.333,290.667 46.412,290.667 46.508 C 290.667 46.604,290.817 46.993,291.000 47.373 C 291.183 47.752,291.333 48.184,291.333 48.331 C 291.333 48.479,291.396 48.671,291.472 48.758 C 291.588 48.891,291.911 49.665,293.002 52.417 C 293.075 52.600,293.366 53.252,293.650 53.864 C 293.934 54.477,294.167 55.049,294.167 55.135 C 294.167 55.272,294.342 55.705,295.192 57.667 C 295.291 57.896,295.438 58.214,295.519 58.373 C 295.600 58.532,295.667 58.773,295.667 58.909 C 295.667 59.045,295.804 59.403,295.971 59.703 C 296.139 60.004,296.487 60.813,296.745 61.500 C 297.002 62.188,297.428 63.214,297.690 63.781 C 297.952 64.348,298.167 64.893,298.167 64.992 C 298.167 65.090,298.234 65.301,298.317 65.461 C 298.819 66.424,299.667 68.540,299.667 68.827 C 299.667 69.014,299.742 69.167,299.833 69.167 C 299.925 69.167,300.000 69.264,300.000 69.383 C 300.000 69.503,300.094 69.802,300.208 70.049 L 300.417 70.497 306.928 70.499 L 313.439 70.500 313.989 69.125 C 314.292 68.369,314.680 67.432,314.853 67.043 C 315.026 66.655,315.167 66.298,315.167 66.250 C 315.167 66.202,315.308 65.845,315.482 65.457 C 315.655 65.068,315.915 64.434,316.061 64.049 C 316.353 63.273,316.943 61.910,317.180 61.461 C 317.264 61.301,317.333 61.094,317.333 61.000 C 317.333 60.907,317.491 60.474,317.683 60.040 C 318.264 58.728,318.305 58.632,318.842 57.250 C 319.127 56.517,319.474 55.654,319.614 55.333 C 319.753 55.012,319.927 54.600,319.999 54.417 C 320.072 54.233,320.411 53.408,320.752 52.583 C 321.094 51.758,321.432 50.933,321.503 50.750 C 321.575 50.567,321.756 50.137,321.906 49.795 C 322.056 49.453,322.369 48.666,322.601 48.045 C 322.834 47.425,323.214 46.467,323.447 45.917 C 323.680 45.367,323.930 44.767,324.002 44.583 C 324.186 44.113,324.572 43.216,324.982 42.301 C 325.175 41.870,325.333 41.438,325.333 41.340 C 325.333 41.242,325.402 41.032,325.486 40.873 C 325.570 40.714,325.749 40.321,325.883 40.000 C 326.017 39.679,326.239 39.154,326.376 38.833 C 326.512 38.512,326.980 37.350,327.415 36.250 C 327.850 35.150,328.302 34.025,328.420 33.750 C 329.019 32.355,329.224 31.847,329.496 31.083 C 329.659 30.625,329.997 29.800,330.247 29.250 C 330.497 28.700,330.760 28.100,330.832 27.917 C 330.904 27.733,331.244 26.871,331.586 26.000 C 332.317 24.141,332.568 23.542,333.087 22.417 C 333.298 21.958,333.564 21.283,333.677 20.917 C 333.869 20.292,334.504 18.779,334.848 18.127 C 334.931 17.968,335.000 17.764,335.000 17.673 C 335.000 17.582,335.215 17.038,335.477 16.463 C 335.740 15.887,336.012 15.229,336.083 15.000 C 336.227 14.536,337.081 12.577,337.336 12.127 C 337.426 11.968,337.500 11.723,337.500 11.583 C 337.500 11.443,337.572 11.199,337.660 11.039 C 338.076 10.286,338.975 8.002,339.026 7.569 L 339.083 7.083 330.467 7.040 L 321.850 6.997 321.605 7.540 C 321.470 7.839,321.158 8.683,320.912 9.417 C 320.666 10.150,320.323 11.045,320.149 11.406 C 319.975 11.767,319.833 12.194,319.833 12.355 C 319.833 12.516,319.758 12.693,319.667 12.750 C 319.575 12.807,319.500 12.965,319.500 13.101 C 319.500 13.238,319.350 13.660,319.167 14.039 C 318.983 14.419,318.833 14.828,318.833 14.948 C 318.833 15.068,318.768 15.167,318.688 15.167 C 318.608 15.167,318.494 15.470,318.435 15.841 C 318.376 16.211,318.262 16.643,318.183 16.799 C 318.104 16.955,317.955 17.290,317.853 17.542 C 317.750 17.794,317.582 18.206,317.478 18.458 C 317.153 19.245,317.042 19.536,316.414 21.250 C 316.078 22.167,315.742 23.067,315.667 23.250 C 315.592 23.433,315.405 23.921,315.252 24.333 C 315.098 24.746,314.874 25.308,314.754 25.583 C 314.634 25.858,314.409 26.490,314.255 26.988 C 313.991 27.838,313.499 29.053,313.153 29.706 C 313.069 29.865,313.000 30.110,313.000 30.250 C 313.000 30.390,312.931 30.635,312.847 30.794 C 312.593 31.275,312.214 32.207,311.949 33.000 C 311.543 34.215,310.795 36.071,310.642 36.242 C 310.564 36.329,310.500 36.520,310.500 36.668 C 310.500 36.936,309.470 39.663,309.163 40.206 C 309.074 40.365,309.000 40.634,309.000 40.803 C 309.000 40.973,308.950 41.161,308.889 41.222 C 308.829 41.283,308.650 41.689,308.492 42.124 C 308.335 42.560,308.109 43.142,307.992 43.417 C 307.739 44.008,307.758 43.953,307.588 44.583 C 307.352 45.465,306.500 45.946,306.500 45.198 C 306.500 45.032,306.359 44.601,306.186 44.240 C 306.013 43.879,305.739 43.171,305.576 42.667 C 305.124 41.262,304.685 40.174,304.148 39.127 C 304.067 38.968,304.000 38.723,304.000 38.583 C 304.000 38.443,303.933 38.199,303.850 38.039 C 303.768 37.880,303.572 37.412,303.414 37.000 C 303.256 36.587,303.068 36.100,302.997 35.917 C 302.925 35.733,302.777 35.321,302.667 35.000 C 302.409 34.250,302.260 33.876,301.528 32.142 C 301.348 31.717,301.147 31.117,301.081 30.809 C 301.015 30.502,300.907 30.175,300.841 30.083 C 300.775 29.992,300.552 29.467,300.344 28.917 C 300.137 28.367,299.905 27.767,299.830 27.583 C 299.754 27.400,299.418 26.500,299.084 25.583 C 298.750 24.667,298.407 23.786,298.321 23.627 C 298.236 23.468,298.167 23.261,298.167 23.167 C 298.167 23.073,298.026 22.678,297.853 22.290 C 297.681 21.901,297.447 21.321,297.334 21.000 C 297.220 20.679,297.033 20.192,296.916 19.917 C 296.800 19.642,296.606 19.117,296.485 18.750 C 296.364 18.383,296.206 18.012,296.133 17.925 C 296.060 17.838,296.000 17.631,296.000 17.464 C 296.000 17.298,295.931 17.032,295.847 16.873 C 295.540 16.293,295.041 15.053,294.589 13.750 C 294.335 13.017,293.986 12.099,293.813 11.710 C 293.641 11.322,293.500 10.927,293.500 10.833 C 293.500 10.739,293.430 10.532,293.344 10.373 C 293.258 10.214,292.980 9.521,292.727 8.833 C 292.240 7.515,291.865 6.807,291.689 6.873 C 291.631 6.894,287.796 6.951,283.167 6.998 M10.860 7.167 C 10.800 7.212,10.750 10.344,10.750 14.125 L 10.750 21.000 22.792 21.000 C 33.582 21.000,34.833 21.027,34.833 21.260 C 34.833 21.525,34.364 22.430,33.596 23.647 C 33.360 24.021,33.167 24.397,33.167 24.483 C 33.167 24.569,33.110 24.664,33.042 24.694 C 32.973 24.725,32.734 25.087,32.510 25.500 C 32.287 25.912,31.697 26.925,31.199 27.750 C 30.702 28.575,30.145 29.512,29.961 29.833 C 29.778 30.154,29.292 30.972,28.880 31.650 C 28.469 32.328,28.000 33.116,27.837 33.400 C 27.674 33.684,27.269 34.392,26.937 34.974 C 26.605 35.556,26.184 36.242,26.000 36.500 C 25.817 36.757,25.667 37.018,25.667 37.080 C 25.667 37.141,25.329 37.713,24.917 38.351 C 24.504 38.989,24.167 39.551,24.167 39.600 C 24.167 39.650,23.942 40.017,23.667 40.417 C 23.392 40.816,23.167 41.179,23.167 41.222 C 23.167 41.325,22.287 42.851,21.106 44.798 C 20.589 45.650,20.167 46.418,20.167 46.506 C 20.167 46.595,20.100 46.667,20.019 46.667 C 19.938 46.667,19.828 46.798,19.774 46.958 C 19.661 47.293,19.307 47.908,18.539 49.106 C 18.243 49.568,18.000 50.024,18.000 50.119 C 18.000 50.215,17.886 50.387,17.747 50.503 C 17.608 50.618,17.368 50.984,17.213 51.315 C 17.059 51.646,16.610 52.424,16.216 53.043 C 15.822 53.663,15.500 54.211,15.500 54.261 C 15.500 54.311,15.200 54.793,14.833 55.333 C 14.467 55.873,14.166 56.375,14.166 56.449 C 14.166 56.523,13.938 56.921,13.660 57.333 C 13.383 57.746,13.030 58.346,12.876 58.667 C 12.723 58.987,12.275 59.751,11.882 60.363 C 11.488 60.974,11.167 61.523,11.167 61.582 C 11.167 61.642,10.952 62.003,10.689 62.387 C 10.279 62.985,9.913 63.625,9.085 65.189 C 8.995 65.360,8.864 65.500,8.794 65.500 C 8.724 65.500,8.667 65.577,8.667 65.671 C 8.667 65.765,8.254 66.527,7.750 67.363 C 7.246 68.199,6.832 68.928,6.830 68.983 C 6.828 69.038,6.679 69.271,6.500 69.500 C 5.734 70.479,5.412 70.435,14.194 70.556 C 24.251 70.695,58.548 70.702,58.903 70.566 C 59.138 70.476,59.167 69.703,59.167 63.566 L 59.167 56.667 46.000 56.667 C 30.902 56.667,32.319 56.858,33.493 54.975 C 33.857 54.393,34.257 53.729,34.383 53.500 C 34.509 53.271,34.765 52.821,34.952 52.500 C 35.139 52.179,35.558 51.452,35.882 50.883 C 36.207 50.315,36.687 49.528,36.950 49.133 C 37.212 48.739,37.536 48.192,37.669 47.917 C 37.803 47.642,38.035 47.229,38.185 47.000 C 38.546 46.450,39.979 44.051,40.326 43.417 C 40.476 43.142,40.801 42.599,41.049 42.212 C 41.297 41.824,41.500 41.430,41.500 41.337 C 41.500 41.243,41.575 41.167,41.667 41.167 C 41.758 41.167,41.833 41.095,41.833 41.006 C 41.833 40.918,42.246 40.159,42.750 39.319 C 43.254 38.478,43.667 37.770,43.667 37.744 C 43.667 37.718,44.163 36.884,44.771 35.890 C 45.378 34.896,46.101 33.671,46.377 33.167 C 46.654 32.662,46.963 32.137,47.065 32.000 C 47.167 31.863,47.351 31.571,47.474 31.352 C 47.597 31.133,47.832 30.721,47.995 30.435 C 48.159 30.150,48.558 29.452,48.882 28.883 C 49.207 28.315,49.704 27.514,49.986 27.103 C 50.269 26.693,50.500 26.307,50.500 26.246 C 50.500 26.185,50.640 25.936,50.811 25.692 C 50.982 25.449,51.407 24.725,51.756 24.083 C 52.104 23.442,52.639 22.543,52.945 22.086 C 53.250 21.628,53.500 21.193,53.500 21.118 C 53.500 21.043,53.800 20.540,54.167 20.000 C 54.533 19.460,54.833 18.973,54.833 18.918 C 54.833 18.863,55.082 18.427,55.386 17.950 C 55.691 17.473,56.167 16.671,56.446 16.167 C 57.033 15.104,57.821 13.785,58.611 12.544 C 58.917 12.064,59.167 11.635,59.167 11.589 C 59.167 11.544,59.429 11.096,59.750 10.595 C 60.071 10.093,60.333 9.638,60.333 9.583 C 60.333 9.529,60.633 9.032,61.000 8.480 C 61.367 7.928,61.667 7.368,61.667 7.235 C 61.667 6.998,11.173 6.930,10.860 7.167 M101.167 9.589 C 101.854 9.732,102.642 9.915,102.917 9.996 C 103.192 10.078,103.717 10.224,104.083 10.321 C 110.768 12.091,116.789 16.402,120.859 22.333 C 122.044 24.059,124.167 28.174,124.167 28.744 C 124.167 28.940,124.231 29.171,124.309 29.258 C 124.450 29.415,125.203 31.787,125.417 32.750 C 125.990 35.328,126.198 40.683,125.823 43.218 C 125.440 45.807,124.814 48.309,124.324 49.206 C 124.238 49.365,124.167 49.633,124.167 49.801 C 124.167 50.329,121.899 54.683,120.801 56.263 C 116.629 62.269,111.124 66.200,103.917 68.320 C 103.434 68.462,102.042 68.773,100.196 69.151 C 98.820 69.433,93.278 69.381,91.458 69.069 C 90.072 68.831,89.503 68.698,87.500 68.143 C 87.179 68.054,86.692 67.920,86.417 67.845 C 82.597 66.802,76.935 63.120,73.822 59.654 C 71.952 57.572,69.000 53.347,69.000 52.753 C 69.000 52.711,68.820 52.281,68.600 51.797 C 67.853 50.151,67.287 48.751,67.132 48.167 C 66.193 44.613,65.926 42.643,65.926 39.250 C 65.926 34.307,66.615 31.073,68.600 26.703 C 68.820 26.219,69.000 25.792,69.000 25.753 C 69.000 25.590,71.095 22.196,71.574 21.583 C 71.861 21.217,72.216 20.729,72.363 20.500 C 74.662 16.923,84.244 10.500,87.281 10.500 C 87.482 10.500,87.688 10.433,87.739 10.352 C 87.789 10.270,88.075 10.162,88.373 10.111 C 88.672 10.061,89.404 9.898,90.000 9.749 C 92.448 9.138,98.570 9.050,101.167 9.589 M93.125 12.456 C 92.091 12.521,91.893 12.741,92.625 13.011 C 93.050 13.168,94.244 13.717,95.957 14.543 C 96.345 14.731,97.244 15.278,97.953 15.759 L 99.243 16.634 99.913 16.296 C 100.592 15.953,103.067 14.273,103.469 13.882 C 103.758 13.601,103.609 13.392,103.044 13.284 C 102.791 13.236,102.058 13.070,101.417 12.916 C 99.360 12.422,96.341 12.255,93.125 12.456 M105.928 15.775 C 105.477 16.283,104.451 17.139,103.649 17.678 C 101.751 18.955,101.766 18.772,103.413 20.556 C 104.201 21.410,105.045 22.403,105.288 22.763 C 105.531 23.122,106.011 23.773,106.354 24.210 C 106.698 24.646,107.026 25.152,107.084 25.334 C 107.184 25.652,107.680 25.570,108.000 25.183 C 108.046 25.127,108.619 24.655,109.273 24.132 C 112.189 21.804,113.996 19.406,113.345 18.727 C 112.137 17.467,107.841 14.818,107.046 14.843 C 106.883 14.848,106.380 15.267,105.928 15.775 M87.667 15.412 C 87.667 15.548,87.892 16.150,88.167 16.750 C 88.442 17.350,88.667 17.907,88.667 17.988 C 88.667 18.238,89.958 20.954,90.126 21.058 C 90.296 21.163,93.376 19.852,95.031 18.970 L 96.019 18.443 95.634 18.090 C 95.067 17.569,91.789 16.019,90.583 15.702 C 90.217 15.605,89.608 15.445,89.231 15.347 C 88.258 15.092,87.667 15.117,87.667 15.412 M83.881 17.132 C 83.345 17.799,82.038 20.427,81.668 21.583 C 81.550 21.950,81.398 22.400,81.331 22.583 C 81.089 23.238,80.799 24.688,80.892 24.781 C 80.944 24.833,81.307 24.747,81.699 24.590 C 82.091 24.433,82.975 24.120,83.664 23.893 C 86.831 22.854,87.257 22.490,86.664 21.328 C 86.479 20.966,85.985 19.825,85.565 18.793 C 84.579 16.367,84.533 16.321,83.881 17.132 M79.642 17.781 C 79.610 17.856,79.288 18.137,78.928 18.407 C 76.852 19.959,74.614 22.548,72.922 25.354 C 71.895 27.057,71.833 27.256,72.375 27.093 C 72.581 27.031,73.162 26.921,73.667 26.848 C 74.788 26.685,77.196 26.031,77.395 25.836 C 77.475 25.757,77.601 25.218,77.675 24.638 C 77.963 22.392,78.724 19.928,79.692 18.109 C 79.783 17.939,79.822 17.766,79.779 17.723 C 79.736 17.681,79.675 17.707,79.642 17.781 M96.583 21.715 C 95.483 22.286,93.890 23.065,93.042 23.447 C 91.306 24.228,91.297 24.244,91.917 25.599 C 92.146 26.100,92.333 26.584,92.333 26.674 C 92.333 26.764,92.401 26.968,92.485 27.127 C 92.904 27.929,93.818 29.995,94.013 30.583 C 94.135 30.950,94.294 31.321,94.367 31.408 C 94.440 31.495,94.500 31.694,94.500 31.849 C 94.500 32.572,95.226 32.325,99.833 30.035 C 101.071 29.420,102.121 28.872,102.167 28.817 C 102.212 28.762,102.756 28.427,103.375 28.073 C 104.753 27.284,104.765 27.367,102.899 24.917 C 100.974 22.389,99.289 20.657,98.769 20.672 C 98.667 20.675,97.683 21.144,96.583 21.715 M243.965 21.518 C 244.180 21.600,244.594 21.667,244.886 21.668 C 245.971 21.672,248.898 22.834,250.753 23.997 C 257.427 28.183,260.316 35.434,258.522 43.500 C 257.586 47.710,253.705 52.392,249.410 54.493 C 247.140 55.603,246.378 55.840,243.417 56.353 C 242.245 56.557,238.384 56.432,237.417 56.159 C 237.050 56.056,236.450 55.895,236.083 55.802 C 235.227 55.584,233.416 54.864,232.667 54.443 C 232.346 54.263,231.801 53.962,231.455 53.775 C 229.773 52.864,227.451 50.604,226.034 48.500 C 225.191 47.247,224.875 46.643,224.313 45.208 C 224.233 45.002,224.100 44.665,224.019 44.458 C 223.838 44.000,223.554 42.951,223.397 42.167 C 223.079 40.577,223.308 35.099,223.741 33.917 C 223.946 33.358,224.113 32.937,224.304 32.500 C 224.403 32.271,224.595 31.807,224.729 31.469 C 225.462 29.628,228.158 26.375,230.195 24.873 C 232.453 23.208,235.566 21.839,237.667 21.587 C 238.171 21.527,238.996 21.415,239.500 21.338 C 240.540 21.180,243.377 21.295,243.965 21.518 M115.500 22.213 C 114.915 23.202,111.831 26.240,110.302 27.333 C 108.783 28.420,108.821 28.247,109.719 30.008 C 110.114 30.783,110.808 32.344,111.260 33.477 C 112.232 35.909,112.231 35.908,113.460 34.987 C 117.287 32.117,119.591 29.542,119.925 27.764 C 120.042 27.142,119.382 25.588,118.546 24.513 C 118.433 24.368,117.890 23.631,117.339 22.875 C 116.189 21.298,116.068 21.254,115.500 22.213 M87.250 25.907 C 86.792 26.115,85.929 26.452,85.333 26.654 C 84.737 26.856,84.100 27.086,83.917 27.164 C 83.733 27.243,83.021 27.505,82.333 27.747 C 80.426 28.419,80.583 28.162,80.588 30.602 C 80.590 31.783,80.685 33.350,80.799 34.083 C 80.912 34.817,81.051 35.717,81.106 36.083 C 81.227 36.888,81.462 37.217,81.818 37.079 C 81.964 37.023,82.383 36.911,82.750 36.832 C 83.878 36.588,84.482 36.397,87.500 35.329 C 91.958 33.750,91.957 33.751,91.333 32.461 C 91.150 32.081,91.000 31.712,91.000 31.640 C 91.000 31.567,90.766 31.000,90.480 30.379 C 90.193 29.758,89.661 28.500,89.297 27.583 C 88.649 25.953,88.399 25.486,88.188 25.514 C 88.130 25.521,87.708 25.698,87.250 25.907 M75.750 29.688 C 74.991 29.899,73.884 30.034,72.583 30.074 L 70.583 30.135 70.304 31.026 C 69.788 32.671,69.494 34.050,69.190 36.250 L 69.029 37.417 69.525 37.854 C 70.319 38.554,74.375 38.697,77.209 38.124 L 78.169 37.931 78.071 37.090 C 78.017 36.628,77.933 36.137,77.883 36.000 C 77.722 35.552,77.485 33.453,77.403 31.750 C 77.316 29.925,77.225 29.325,77.038 29.348 C 76.971 29.357,76.392 29.509,75.750 29.688 M105.333 30.618 C 104.921 30.849,104.171 31.274,103.667 31.564 C 102.859 32.029,100.178 33.383,97.061 34.902 C 95.905 35.466,95.925 35.250,96.839 37.250 C 97.090 37.800,97.689 39.211,98.170 40.386 C 99.249 43.018,99.302 43.081,100.127 42.673 C 100.470 42.504,101.799 41.852,103.081 41.225 C 105.435 40.072,108.916 38.137,109.281 37.778 C 109.537 37.526,108.607 35.032,107.056 31.812 C 106.217 30.068,106.262 30.099,105.333 30.618 M120.873 32.549 C 119.513 34.245,117.136 36.350,114.458 38.228 C 113.260 39.068,113.241 39.104,113.504 40.001 C 113.951 41.529,114.667 45.699,114.667 46.777 C 114.667 47.473,114.613 47.482,115.957 46.563 C 118.948 44.518,121.788 41.810,122.615 40.216 C 122.885 39.696,122.907 36.852,122.653 35.427 C 121.952 31.501,121.848 31.332,120.873 32.549 M91.347 37.265 C 90.575 37.576,88.700 38.246,87.180 38.753 C 83.487 39.987,83.444 40.000,83.050 40.000 C 82.532 40.000,82.244 40.430,82.461 40.881 C 82.559 41.084,82.676 41.400,82.722 41.583 C 82.887 42.251,83.491 43.784,84.165 45.250 C 84.545 46.075,84.966 46.994,85.102 47.292 C 85.238 47.590,85.417 47.833,85.500 47.833 C 85.716 47.833,87.190 47.428,88.833 46.916 C 89.612 46.673,90.625 46.365,91.083 46.230 C 91.542 46.095,92.067 45.920,92.250 45.841 C 92.433 45.761,93.333 45.417,94.250 45.075 C 96.400 44.274,96.390 44.283,96.056 43.525 C 95.909 43.190,95.458 42.129,95.055 41.167 C 94.652 40.204,94.173 39.095,93.990 38.701 C 93.808 38.308,93.540 37.689,93.394 37.326 C 93.082 36.545,93.129 36.546,91.347 37.265 M108.750 41.845 C 106.200 43.240,103.079 44.824,101.529 45.511 C 100.483 45.974,100.483 45.849,101.539 48.333 C 101.949 49.296,102.576 50.775,102.933 51.621 C 103.348 52.602,103.676 53.160,103.839 53.163 C 104.106 53.167,110.900 49.791,111.309 49.451 C 111.806 49.038,110.997 41.751,110.388 41.158 C 110.312 41.085,109.575 41.393,108.750 41.845 M77.250 41.357 C 76.639 41.563,70.666 41.636,69.776 41.448 L 69.136 41.313 69.247 42.615 C 69.309 43.331,69.419 44.142,69.494 44.417 C 69.568 44.692,69.728 45.367,69.850 45.917 C 70.330 48.088,70.701 48.576,72.234 49.042 C 73.699 49.488,81.095 49.126,82.031 48.562 C 82.141 48.496,81.948 47.995,81.045 46.000 C 80.400 44.576,80.311 44.351,79.763 42.750 L 79.250 41.250 78.500 41.219 C 78.087 41.202,77.525 41.264,77.250 41.357 M121.778 45.955 C 121.463 46.465,117.290 49.564,115.163 50.867 C 114.782 51.101,114.714 51.319,114.443 53.187 C 114.232 54.643,113.884 56.022,113.259 57.875 C 112.772 59.319,112.427 60.500,112.491 60.500 C 112.888 60.500,116.462 56.935,117.337 55.667 C 117.558 55.346,117.835 54.984,117.953 54.863 C 118.070 54.742,118.167 54.587,118.167 54.520 C 118.167 54.452,118.298 54.251,118.458 54.073 C 118.619 53.895,118.949 53.375,119.192 52.917 C 119.435 52.458,119.866 51.650,120.150 51.121 C 120.998 49.542,122.492 44.799,121.778 45.955 M96.667 47.528 C 96.438 47.626,96.100 47.771,95.917 47.849 C 94.495 48.455,93.570 48.773,89.667 50.000 C 88.429 50.389,87.354 50.764,87.278 50.834 C 87.034 51.057,89.370 54.271,91.207 56.243 L 92.331 57.449 93.040 57.253 C 93.431 57.145,93.862 57.017,94.000 56.968 C 94.395 56.829,96.267 56.181,98.083 55.555 C 100.831 54.607,100.785 54.665,100.095 53.038 C 97.427 46.739,97.655 47.105,96.667 47.528 M364.083 50.833 C 363.900 50.912,363.394 50.982,362.958 50.988 C 362.523 50.995,362.167 51.075,362.167 51.167 C 362.167 51.258,362.031 51.333,361.865 51.333 C 360.855 51.333,357.167 54.292,357.167 55.102 C 357.167 55.156,357.047 55.473,356.900 55.808 C 356.389 56.972,356.352 57.088,356.246 57.833 C 356.037 59.311,356.165 61.296,356.524 62.167 C 357.523 64.585,358.970 66.224,360.917 67.143 C 361.375 67.360,361.880 67.603,362.039 67.685 C 362.199 67.767,362.625 67.833,362.988 67.833 C 363.350 67.833,363.693 67.908,363.750 68.000 C 363.807 68.092,364.107 68.167,364.417 68.167 C 364.727 68.167,365.027 68.092,365.083 68.000 C 365.140 67.908,365.515 67.833,365.917 67.833 C 366.318 67.833,366.693 67.758,366.750 67.667 C 366.807 67.575,366.996 67.500,367.171 67.500 C 368.295 67.500,370.896 65.245,371.730 63.548 C 371.991 63.018,372.271 62.453,372.352 62.294 C 372.434 62.135,372.500 61.783,372.500 61.512 C 372.500 61.241,372.575 60.973,372.667 60.917 C 372.758 60.860,372.833 60.185,372.833 59.417 C 372.833 58.648,372.758 57.973,372.667 57.917 C 372.575 57.860,372.500 57.592,372.500 57.321 C 372.500 57.050,372.433 56.699,372.352 56.539 C 372.271 56.380,371.997 55.844,371.743 55.347 C 370.873 53.644,369.676 52.473,368.032 51.718 C 366.607 51.064,366.478 51.023,365.667 50.954 C 365.254 50.919,364.804 50.845,364.667 50.790 C 364.529 50.735,364.267 50.754,364.083 50.833 M82.167 51.848 C 78.789 52.574,74.389 52.836,72.873 52.401 C 71.972 52.143,73.975 55.204,76.368 57.742 C 78.089 59.567,81.213 59.835,87.404 58.691 C 88.783 58.436,88.784 58.417,87.485 56.833 C 86.846 56.054,85.744 54.537,85.036 53.462 C 84.329 52.386,83.712 51.515,83.667 51.525 C 83.621 51.536,82.946 51.681,82.167 51.848 M109.333 54.081 C 108.554 54.479,107.260 55.123,106.458 55.513 C 105.656 55.902,105.000 56.274,105.000 56.338 C 105.000 56.511,105.641 58.101,106.173 59.250 C 106.428 59.800,106.768 60.587,106.928 61.000 C 107.413 62.247,107.484 62.269,108.094 61.364 C 109.294 59.582,110.727 56.023,111.076 53.958 C 111.211 53.161,111.122 53.167,109.333 54.081 M100.917 57.862 C 100.458 58.045,99.953 58.264,99.794 58.348 C 99.635 58.431,99.358 58.500,99.179 58.500 C 99.000 58.500,98.807 58.575,98.750 58.667 C 98.693 58.758,98.468 58.833,98.250 58.833 C 98.032 58.833,97.815 58.894,97.769 58.969 C 97.723 59.044,97.231 59.250,96.676 59.427 C 95.142 59.918,95.260 60.067,98.428 61.640 C 100.121 62.480,101.251 62.873,103.083 63.258 C 104.568 63.570,104.582 63.502,103.527 61.167 C 103.299 60.663,102.871 59.653,102.575 58.923 C 101.953 57.391,102.007 57.426,100.917 57.862 M90.333 61.240 C 89.620 61.445,88.786 61.626,86.917 61.982 C 86.458 62.069,85.315 62.233,84.375 62.347 C 83.435 62.461,82.667 62.605,82.667 62.668 C 82.667 63.124,87.407 64.928,90.333 65.585 C 91.021 65.739,91.801 65.933,92.067 66.016 C 92.760 66.232,99.041 66.207,99.614 65.985 C 100.080 65.806,100.075 65.801,99.044 65.411 C 97.685 64.896,94.844 63.433,94.100 62.865 C 91.536 60.907,91.516 60.898,90.333 61.240 " stroke="none" fill="#1a1a1a" fill-rule="evenodd"></path></g></svg>